<svg width="302" height="300" viewBox="0 0 302 300" fill="none" xmlns="http://www.w3.org/2000/svg">
<path d="M12.4586 263.931C5.30657 259.801 0.900517 252.17 0.900518 243.911L0.900421 178.14C0.900627 169.882 5.30649 162.25 12.4582 158.121L71.0485 124.294L71.049 56.9062C71.0491 48.6478 75.4551 41.0157 82.6071 36.8864L139.567 4.00069C146.719 -0.128208 155.531 -0.12767 162.683 4.00146L219.642 36.8865C226.794 41.0157 231.2 48.6473 231.2 56.9057L231.2 124.308L289.56 158.001C296.712 162.13 301.118 169.762 301.118 178.02L301.118 243.792C301.118 252.05 296.712 259.681 289.56 263.81L232.6 296.696C225.448 300.825 216.637 300.825 209.485 296.696L151.116 262.998L219.633 223.439C226.785 219.31 231.19 211.678 231.19 203.42L231.19 124.302L162.673 84.7438C155.521 80.6148 146.709 80.6148 139.557 84.7439L71.0398 124.303L71.0399 203.42C71.0399 211.678 75.4459 219.31 82.598 223.439L151.112 262.996L92.5339 296.816C85.382 300.945 76.5704 300.946 69.4185 296.817L12.4586 263.931Z" fill="url(#paint0_linear_154_3571)"/>
<defs>
<linearGradient id="paint0_linear_154_3571" x1="154.829" y1="0.827515" x2="154.834" y2="303.006" gradientUnits="userSpaceOnUse">
<stop stop-color="#FFF500"/>
<stop offset="1" stop-color="#FFB902"/>
</linearGradient>
</defs>
</svg>
